<svg width="20" height="12" viewBox="0 0 20 12" fill="none" xmlns="http://www.w3.org/2000/svg">
<path d="M19.0909 5.09091H3.10385L6.09736 2.09734C6.45239 1.74237 6.45239 1.16673 6.09736 0.811698C5.74239 0.456729 5.16676 0.456729 4.81173 0.811698L0.266273 5.35715C-0.0887576 5.71212 -0.0887576 6.28776 0.266273 6.64279L4.81173 11.1882C4.9893 11.3658 5.22191 11.4545 5.45458 11.4545C5.68724 11.4545 5.91991 11.3658 6.09736 11.1882C6.45239 10.8333 6.45239 10.2576 6.09736 9.90261L3.10385 6.90909H19.0909C19.593 6.90909 20 6.50206 20 6C20 5.49794 19.593 5.09091 19.0909 5.09091Z" fill="#203359"/>
</svg>
