<svg width="16" height="10" viewBox="0 0 16 10" fill="none" xmlns="http://www.w3.org/2000/svg">
<path d="M15.2728 4.2727H2.48308L4.87789 1.87784C5.16192 1.59387 5.16192 1.13336 4.87789 0.849334C4.59392 0.565359 4.13341 0.565359 3.84938 0.849334L0.213018 4.4857C-0.0710061 4.76967 -0.0710061 5.23018 0.213018 5.51421L3.84938 9.15057C3.99144 9.29258 4.17753 9.36361 4.36366 9.36361C4.54979 9.36361 4.73593 9.29258 4.87789 9.15057C5.16192 8.8666 5.16192 8.40609 4.87789 8.12206L2.48308 5.72725H15.2728C15.6744 5.72725 16 5.40163 16 4.99998C16 4.59833 15.6744 4.2727 15.2728 4.2727Z" fill="#6A768E"/>
</svg>
