<svg width="24" height="22" viewBox="0 0 24 22" fill="none" xmlns="http://www.w3.org/2000/svg">
<path d="M11.0515 11.0331C11.0515 9.5968 9.88299 8.42828 8.44665 8.42828C7.01032 8.42828 5.8418 9.5968 5.8418 11.0331C5.8418 12.4695 7.01032 13.638 8.44665 13.638C9.88299 13.638 11.0515 12.4695 11.0515 11.0331ZM8.44665 12.2299C7.78673 12.2299 7.24988 11.6931 7.24988 11.0331C7.24988 10.3732 7.78673 9.83636 8.44665 9.83636C9.10658 9.83636 9.64343 10.3732 9.64343 11.0331C9.64343 11.6931 9.10653 12.2299 8.44665 12.2299Z" fill="#EDEDED"/>
<path d="M15.3959 8.42828C13.9595 8.42828 12.791 9.5968 12.791 11.0331C12.791 12.4695 13.9595 13.638 15.3959 13.638C16.8322 13.638 18.0007 12.4695 18.0007 11.0331C18.0007 9.5968 16.8322 8.42828 15.3959 8.42828ZM15.3959 12.2299C14.736 12.2299 14.1991 11.6931 14.1991 11.0331C14.1991 10.3732 14.736 9.83636 15.3959 9.83636C16.0558 9.83636 16.5926 10.3732 16.5926 11.0331C16.5926 11.6931 16.0558 12.2299 15.3959 12.2299Z" fill="#EDEDED"/>
<path d="M11.9218 15.101C12.3106 15.101 12.6259 14.7858 12.6259 14.397V13.5365C12.6259 13.1477 12.3106 12.8325 11.9218 12.8325C11.533 12.8325 11.2178 13.1477 11.2178 13.5365V14.397C11.2178 14.7858 11.533 15.101 11.9218 15.101Z" fill="#EDEDED"/>
<path d="M23.296 12.8324H22.6858V11.1666C22.6858 10.7778 22.3706 10.4626 21.9818 10.4626H20.3347V8.9866C20.3347 7.12957 18.8238 5.6187 16.9668 5.6187H12.6258V3.98007C13.366 3.69601 13.8931 2.97822 13.8931 2.13919C13.8931 1.0522 13.0087 0.167877 11.9218 0.167877C10.8348 0.167877 9.95044 1.0522 9.95044 2.13919C9.95044 2.97817 10.4775 3.69597 11.2177 3.98007V5.6187H6.87679C5.01976 5.6187 3.50889 7.12953 3.50889 8.9866V10.4626H1.86181C1.47299 10.4626 1.15777 10.7778 1.15777 11.1666V12.8324H0.704041C0.315223 12.8324 0 13.1477 0 13.5365C0 13.9253 0.315223 14.2405 0.704041 14.2405H1.15777V15.7976C1.15777 16.1864 1.47299 16.5016 1.86181 16.5016H3.50889V18.4642C3.50889 20.3213 5.01972 21.8322 6.87679 21.8322H16.9668C18.8238 21.8322 20.3347 20.3213 20.3347 18.4642V16.5016H21.9818C22.3706 16.5016 22.6858 16.1864 22.6858 15.7976V14.2405H23.296C23.6848 14.2405 24 13.9253 24 13.5365C24 13.1477 23.6848 12.8324 23.296 12.8324ZM11.9218 1.57596C12.2323 1.57596 12.485 1.82862 12.485 2.13919C12.485 2.44977 12.2323 2.70242 11.9218 2.70242C11.6112 2.70242 11.3585 2.44977 11.3585 2.13919C11.3585 1.82862 11.6112 1.57596 11.9218 1.57596ZM2.56585 15.0935V11.8706H3.50889V15.0935H2.56585ZM18.9266 18.4642C18.9266 19.5449 18.0474 20.4241 16.9668 20.4241H6.87679C5.79618 20.4241 4.91697 19.5449 4.91697 18.4642V8.9866C4.91697 7.90599 5.79613 7.02678 6.87679 7.02678H16.9668C18.0474 7.02678 18.9266 7.90594 18.9266 8.9866V18.4642H18.9266ZM21.2777 15.0935H20.3347V11.8706H21.2777V15.0935Z" fill="#EDEDED"/>
<path d="M13.7527 16.0416H10.0917C9.70292 16.0416 9.3877 16.3568 9.3877 16.7456C9.3877 17.1345 9.70292 17.4497 10.0917 17.4497H13.7527C14.1416 17.4497 14.4568 17.1345 14.4568 16.7456C14.4568 16.3568 14.1416 16.0416 13.7527 16.0416Z" fill="#EDEDED"/>
<path d="M11.9335 18.0443H11.9101C11.5213 18.0443 11.2061 18.3595 11.2061 18.7483C11.2061 19.1371 11.5213 19.4524 11.9101 19.4524H11.9335C12.3223 19.4524 12.6375 19.1371 12.6375 18.7483C12.6375 18.3595 12.3223 18.0443 11.9335 18.0443Z" fill="#EDEDED"/>
</svg>
