<svg width="32" height="32" viewBox="0 0 32 32" fill="none" xmlns="http://www.w3.org/2000/svg">
<path d="M4.572 31.9999C7.09705 31.9999 9.144 29.953 9.144 27.4279C9.144 24.9029 7.09705 22.856 4.572 22.856C2.04695 22.856 0 24.9029 0 27.4279C0 29.953 2.04695 31.9999 4.572 31.9999Z" fill="#FF9800"/>
<path d="M15.2387 32.0001H21.332C21.332 20.2387 11.7613 10.6681 0 10.6667V16.7627C8.40267 16.7641 15.2387 23.5974 15.2387 32.0001Z" fill="#FF9800"/>
<path d="M32 32C32 14.3547 17.6453 0 0 0V6.09467C14.2853 6.09467 25.9067 17.7133 25.9067 32H32Z" fill="#FF9800"/>
</svg>
