<svg width="14" height="16" viewBox="0 0 14 16" fill="none" xmlns="http://www.w3.org/2000/svg">
<path d="M11.6251 0.859312C10.3731 0.305156 8.73068 0 7.00037 0C5.2699 0 3.62752 0.304875 2.3758 0.858406C0.984242 1.47378 0.217898 2.34184 0.217898 3.30269C0.217898 3.31025 0.218336 3.31775 0.218461 3.32528C0.218336 3.32994 0.217773 3.33447 0.217773 3.33912L0.217898 12.8696C0.217898 13.7907 0.983148 14.6168 2.37271 15.1958C3.61737 15.7144 5.26087 16 7.00052 16C8.74018 16 10.3836 15.7144 11.6283 15.1958C13.0178 14.6168 13.7796 13.7907 13.7796 12.8696V3.30434C13.7796 3.30253 13.7829 3.30084 13.7828 3.29903C13.78 2.34031 13.0141 1.47403 11.6251 0.859312ZM2.79787 1.81272C3.91959 1.31666 5.41206 1.04347 7.00037 1.04347C8.5884 1.04347 10.0809 1.31694 11.2028 1.8135C12.165 2.23938 12.7395 2.79669 12.7395 3.30434C12.7395 3.812 12.165 4.36931 11.2028 4.79519C10.0809 5.29175 8.5884 5.56522 7.00037 5.56522C3.71568 5.56522 1.26137 4.37072 1.26137 3.30269C1.26137 2.79516 1.83577 2.23819 2.79787 1.81272ZM12.7396 12.8696C12.7396 13.3284 12.1741 13.8379 11.227 14.2326C10.1066 14.6994 8.60555 14.9565 7.00052 14.9565C5.39549 14.9565 3.89449 14.6994 2.77409 14.2326C1.8269 13.8379 1.2579 13.3284 1.2579 12.8696V11.4578C1.56512 11.6812 1.9404 11.8852 2.37274 12.0654C3.61737 12.584 5.26084 12.8696 7.00049 12.8696C8.74015 12.8696 10.3836 12.584 11.6283 12.0654C12.0606 11.8853 12.4324 11.6812 12.7396 11.4578V12.8696H12.7396ZM11.227 11.1022C10.1066 11.569 8.60555 11.8261 7.00052 11.8261C5.39549 11.8261 3.89449 11.569 2.77409 11.1022C1.8269 10.7075 1.2614 10.1979 1.2614 9.73913C1.2614 9.73881 1.2579 9.73853 1.2579 9.73825L1.25787 8.32725C1.56512 8.55066 1.9404 8.75475 2.37274 8.93494C3.6174 9.4535 5.26087 9.73913 7.00052 9.73913C8.74018 9.73913 10.3836 9.45353 11.6283 8.93491C12.0606 8.75478 12.4324 8.55069 12.7396 8.32728V9.73909C12.7396 10.1979 12.1741 10.7075 11.227 11.1022ZM11.227 7.97172C10.1066 8.43853 8.60555 8.69566 7.00052 8.69566C5.39549 8.69566 3.89449 8.43853 2.77409 7.97172C1.8269 7.57703 1.25777 7.0675 1.25777 6.60869C1.25777 6.60809 1.2578 6.6075 1.2578 6.60691L1.25777 5.10362C1.56568 5.33984 1.94199 5.55638 2.37555 5.74847C3.6278 6.30319 5.2703 6.60869 7.0004 6.60869C8.73068 6.60869 10.3731 6.30353 11.6251 5.74937C12.0588 5.55744 12.4317 5.34097 12.7396 5.10481V6.60869C12.7396 7.0675 12.1741 7.57703 11.227 7.97172Z" fill="#6A768E"/>
</svg>
