<svg width="24" height="24" viewBox="0 0 24 24" fill="none" xmlns="http://www.w3.org/2000/svg">
<path d="M22.2726 15.9033H21.3618V14.2374C21.3618 13.3448 20.634 12.6188 19.7391 12.6188H12.6899V10.8324H15.3624C16.4162 10.8324 17.2735 9.9751 17.2735 8.92133V2.91107C17.2735 1.8573 16.4162 1 15.3624 1H8.61304C7.55927 1 6.70197 1.8573 6.70197 2.91107V8.92133C6.70197 9.9751 7.55927 10.8324 8.61304 10.8324H11.2837V12.6188H4.26086C3.36603 12.6188 2.638 13.3448 2.638 14.2374V15.9033H1.72742C0.774902 15.9033 0 16.6782 0 17.6306V20.8351C0 21.7876 0.774902 22.5625 1.72742 22.5625H4.95502C5.90753 22.5625 6.68243 21.7876 6.68243 20.8351V17.6306C6.68243 16.6782 5.90753 15.9033 4.95502 15.9033H4.04425V14.2374C4.04425 14.1202 4.14148 14.025 4.26086 14.025H11.2835V15.9033H10.3861C9.43359 15.9033 8.65869 16.6782 8.65869 17.6306V20.8351C8.65869 21.7876 9.43359 22.5625 10.3861 22.5625H13.6137C14.5662 22.5625 15.3411 21.7876 15.3411 20.8351V17.6306C15.3411 16.6782 14.5662 15.9033 13.6137 15.9033H12.6898V14.025H19.7391C19.8585 14.025 19.9556 14.1202 19.9556 14.2374V15.9033H19.0448C18.0925 15.9033 17.3176 16.6782 17.3176 17.6306V20.8351C17.3176 21.7876 18.0925 22.5625 19.0448 22.5625H22.2726C23.2251 22.5625 24 21.7876 24 20.8351V17.6306C24 16.6782 23.2251 15.9033 22.2726 15.9033ZM8.10822 8.92133V2.91107C8.10822 2.63257 8.33472 2.40625 8.61304 2.40625H15.3624C15.6409 2.40625 15.8672 2.63275 15.8672 2.91107V8.92133C15.8672 9.19983 15.6409 9.42615 15.3624 9.42615H8.61304C8.33472 9.42615 8.10822 9.19983 8.10822 8.92133ZM5.27618 17.6306V20.8351C5.27618 21.0121 5.13208 21.1562 4.95502 21.1562H1.72742C1.55035 21.1562 1.40625 21.0121 1.40625 20.8351V17.6306C1.40625 17.4537 1.55035 17.3096 1.72742 17.3096H4.95502C5.13208 17.3096 5.27618 17.4537 5.27618 17.6306ZM13.9349 17.6306V20.8351C13.9349 21.0121 13.791 21.1562 13.6139 21.1562H10.3861C10.209 21.1562 10.0649 21.0121 10.0649 20.8351V17.6306C10.0649 17.4537 10.209 17.3096 10.3861 17.3096H13.6139C13.791 17.3096 13.9349 17.4537 13.9349 17.6306ZM22.5938 20.8351C22.5938 21.0121 22.4496 21.1562 22.2726 21.1562H19.045C18.8679 21.1562 18.7238 21.0121 18.7238 20.8351V17.6306C18.7238 17.4537 18.8679 17.3096 19.045 17.3096H22.2726C22.4496 17.3096 22.5938 17.4537 22.5938 17.6306V20.8351Z" fill="white"/>
</svg>
