<svg width="20" height="20" viewBox="0 0 20 20" fill="none" xmlns="http://www.w3.org/2000/svg">
<path d="M0.696554 6.04479C1.08133 6.04479 1.39311 5.73292 1.39311 5.34823V2.37831L5.87938 6.86365C6.01544 6.99962 6.19366 7.06761 6.37189 7.06761C6.5502 7.06761 6.72852 6.99962 6.86449 6.86356C7.13652 6.59153 7.13652 6.15048 6.8644 5.87854L2.37794 1.39311H5.34851C5.73319 1.39311 6.04506 1.08124 6.04506 0.696554C6.04506 0.31187 5.73329 0 5.34851 0H0.696554C0.311777 0 0 0.31187 0 0.696554V5.34833C0 5.73292 0.311777 6.04479 0.696554 6.04479Z" fill="#203359"/>
<path d="M19.304 13.9552C18.9192 13.9552 18.6075 14.2671 18.6075 14.6518V17.6218L13.9831 12.9974C13.711 12.7254 13.27 12.7254 12.998 12.9974C12.7259 13.2694 12.7259 13.7105 12.998 13.9824L17.6222 18.6067H14.6524C14.2676 18.6067 13.9559 18.9186 13.9559 19.3033C13.9559 19.688 14.2676 19.9998 14.6524 19.9998H19.3041C19.6889 19.9998 20.0007 19.688 20.0007 19.3033V14.6518C20.0006 14.2671 19.6887 13.9552 19.304 13.9552Z" fill="#203359"/>
<path d="M6.01799 12.9974L1.39408 17.6217V14.6518C1.39408 14.2671 1.08231 13.9552 0.69753 13.9552C0.312754 13.9552 0.000976562 14.2671 0.000976562 14.6518V19.3035C0.000976562 19.6881 0.312754 20 0.69753 20H5.34902C5.73371 20 6.04558 19.6881 6.04558 19.3035C6.04558 18.9188 5.7338 18.6069 5.34902 18.6069H2.3791L7.00311 13.9824C7.27514 13.7104 7.27514 13.2694 7.00301 12.9973C6.73117 12.7254 6.29011 12.7254 6.01799 12.9974Z" fill="#203359"/>
<path d="M19.3039 0H14.6522C14.2675 0 13.9557 0.31187 13.9557 0.696554C13.9557 1.08124 14.2675 1.39311 14.6522 1.39311H17.6222L13.1366 5.87901C12.8646 6.15103 12.8646 6.59209 13.1367 6.86412C13.2727 7.00009 13.451 7.06807 13.6292 7.06807C13.8075 7.06807 13.9858 6.99999 14.1218 6.86402L18.6074 2.37813V5.34823C18.6074 5.73291 18.9192 6.04478 19.304 6.04478C19.6888 6.04478 20.0006 5.73291 20.0006 5.34823V0.696554C20.0005 0.311777 19.6886 0 19.3039 0Z" fill="#203359"/>
</svg>
