<svg width="24" height="24" viewBox="0 0 24 24" fill="none" xmlns="http://www.w3.org/2000/svg">
<g clip-path="url(#clip0)">
<path d="M11.9844 8.00006C11.5704 8.00006 11.2344 7.66406 11.2344 7.25006V0.75C11.2344 0.335999 11.5704 0 11.9844 0C12.3984 0 12.7344 0.335999 12.7344 0.75V7.25006C12.7344 7.66406 12.3984 8.00006 11.9844 8.00006Z" fill="#EDEDED"/>
<path d="M11.9844 24C5.91943 24 0.984375 19.065 0.984375 12.9999C0.984375 8.39594 3.89539 4.23908 8.22729 2.65504C8.61639 2.51405 9.04633 2.71308 9.18933 3.102C9.33142 3.4911 9.13129 3.92103 8.74237 4.06404C4.99933 5.43202 2.48438 9.02308 2.48438 12.9999C2.48438 18.238 6.74634 22.5 11.9844 22.5C17.2224 22.5 21.4843 18.238 21.4843 12.9999C21.4843 9.02308 18.9694 5.43202 15.2274 4.06404C14.8383 3.92103 14.6384 3.4911 14.7805 3.102C14.9224 2.71308 15.3523 2.51295 15.7423 2.65504C20.0733 4.23908 22.9843 8.39594 22.9843 12.9999C22.9843 19.065 18.0494 24 11.9844 24Z" fill="#EDEDED"/>
</g>
<defs>
<clipPath id="clip0">
<rect width="24" height="24" fill="white"/>
</clipPath>
</defs>
</svg>
