<svg width="48" height="48" viewBox="0 0 48 48" fill="none" xmlns="http://www.w3.org/2000/svg">
<g clip-path="url(#clip0)">
<path d="M22.104 24.0663C22.104 21.1936 19.767 18.8566 16.8943 18.8566C14.0216 18.8566 11.6846 21.1936 11.6846 24.0663C11.6846 26.9389 14.0216 29.276 16.8943 29.276C19.767 29.276 22.104 26.9389 22.104 24.0663ZM16.8943 26.4598C15.5744 26.4598 14.5007 25.3861 14.5007 24.0663C14.5007 22.7464 15.5744 21.6727 16.8943 21.6727C18.2141 21.6727 19.2878 22.7464 19.2878 24.0663C19.2878 25.3861 18.214 26.4598 16.8943 26.4598Z" fill="#203359"/>
<path d="M30.7927 18.8566C27.9201 18.8566 25.583 21.1936 25.583 24.0663C25.583 26.9389 27.9201 29.276 30.7927 29.276C33.6654 29.276 36.0024 26.9389 36.0024 24.0663C36.0024 21.1936 33.6654 18.8566 30.7927 18.8566ZM30.7927 26.4598C29.4729 26.4598 28.3992 25.3861 28.3992 24.0663C28.3992 22.7464 29.4729 21.6727 30.7927 21.6727C32.1126 21.6727 33.1862 22.7464 33.1862 24.0663C33.1862 25.3861 32.1126 26.4598 30.7927 26.4598Z" fill="#203359"/>
<path d="M23.8436 32.202C24.6213 32.202 25.2517 31.5715 25.2517 30.7939V29.073C25.2517 28.2953 24.6213 27.6649 23.8436 27.6649C23.066 27.6649 22.4355 28.2953 22.4355 29.073V30.7939C22.4355 31.5715 23.066 32.202 23.8436 32.202Z" fill="#203359"/>
<path d="M46.5919 27.6649H45.3716V24.3332C45.3716 23.5555 44.7411 22.9251 43.9635 22.9251H40.6693V19.9732C40.6693 16.2591 37.6477 13.2374 33.9335 13.2374H25.2516V9.96013C26.7321 9.39201 27.7861 7.95643 27.7861 6.27837C27.7861 4.10438 26.0175 2.33574 23.8435 2.33574C21.6695 2.33574 19.9009 4.10438 19.9009 6.27837C19.9009 7.95633 20.955 9.39192 22.4354 9.96013V13.2374H13.7536C10.0395 13.2374 7.01779 16.259 7.01779 19.9732V22.9251H3.72362C2.94599 22.9251 2.31554 23.5555 2.31554 24.3332V27.6649H1.40808C0.630445 27.6649 0 28.2953 0 29.073C0 29.8506 0.630445 30.481 1.40808 30.481H2.31554V33.5952C2.31554 34.3728 2.94599 35.0032 3.72362 35.0032H7.01779V38.9284C7.01779 42.6426 10.0394 45.6643 13.7536 45.6643H33.9336C37.6477 45.6643 40.6694 42.6426 40.6694 38.9284V35.0032H43.9636C44.7412 35.0032 45.3717 34.3728 45.3717 33.5952V30.481H46.592C47.3696 30.481 48.0001 29.8506 48.0001 29.073C48.0001 28.2953 47.3696 27.6649 46.5919 27.6649ZM23.8435 5.1519C24.4647 5.1519 24.97 5.65722 24.97 6.27837C24.97 6.89952 24.4647 7.40483 23.8435 7.40483C23.2224 7.40483 22.7171 6.89952 22.7171 6.27837C22.7171 5.65722 23.2224 5.1519 23.8435 5.1519ZM5.13171 32.1871V25.7412H7.01779V32.1871H5.13171ZM37.8532 38.9284C37.8532 41.0897 36.0949 42.8481 33.9335 42.8481H13.7536C11.5924 42.8481 9.83395 41.0898 9.83395 38.9284V19.9732C9.83395 17.812 11.5923 16.0536 13.7536 16.0536H33.9336C36.0949 16.0536 37.8533 17.8119 37.8533 19.9732V38.9284H37.8532ZM42.5554 32.1871H40.6693V25.7412H42.5554V32.1871Z" fill="#203359"/>
<path d="M27.5045 34.0832H20.1825C19.4049 34.0832 18.7744 34.7136 18.7744 35.4913C18.7744 36.2689 19.4049 36.8994 20.1825 36.8994H27.5045C28.2821 36.8994 28.9126 36.2689 28.9126 35.4913C28.9126 34.7136 28.2821 34.0832 27.5045 34.0832Z" fill="#203359"/>
<path d="M23.867 38.0885H23.8202C23.0426 38.0885 22.4121 38.719 22.4121 39.4966C22.4121 40.2743 23.0426 40.9047 23.8202 40.9047H23.867C24.6447 40.9047 25.2751 40.2743 25.2751 39.4966C25.2751 38.719 24.6447 38.0885 23.867 38.0885Z" fill="#203359"/>
</g>
<defs>
<clipPath id="clip0">
<rect width="48" height="48" fill="white"/>
</clipPath>
</defs>
</svg>
