<svg width="48" height="48" viewBox="0 0 48 48" fill="none" xmlns="http://www.w3.org/2000/svg">
<path d="M42.8068 14.4744L28.7443 0.411938C28.4806 0.148125 28.1229 0 27.75 0H6.1875C5.41087 0 4.78125 0.629625 4.78125 1.40625V46.5938C4.78125 47.3704 5.41087 48 6.1875 48H41.8125C42.5891 48 43.2188 47.3704 43.2188 46.5938V15.4688C43.2188 15.0957 43.0705 14.7381 42.8068 14.4744ZM40.4062 45.1875H7.59375V2.8125H27.1675L40.4062 16.0512V45.1875Z" fill="#203359"/>
<path d="M28.6875 22.5938H25.4062V19.3125C25.4062 18.5359 24.7766 17.9062 24 17.9062C23.2234 17.9062 22.5938 18.5359 22.5938 19.3125V22.5938H19.3125C18.5359 22.5938 17.9062 23.2234 17.9062 24C17.9062 24.7766 18.5359 25.4062 19.3125 25.4062H22.5938V28.6875C22.5938 29.4641 23.2234 30.0938 24 30.0938C24.7766 30.0938 25.4062 29.4641 25.4062 28.6875V25.4062H28.6875C29.4641 25.4062 30.0938 24.7766 30.0938 24C30.0938 23.2234 29.4641 22.5938 28.6875 22.5938Z" fill="#203359"/>
</svg>
