<svg width="24" height="24" viewBox="0 0 24 24" fill="none" xmlns="http://www.w3.org/2000/svg">
<path d="M21.8906 0L2.10938 0C0.946266 0 0 0.946266 0 2.10938L0 16.2656C0 17.4287 0.946266 18.375 2.10937 18.375H8.75297L9.45609 19.7812H9.1875C7.24898 19.7812 5.67187 21.3584 5.67187 23.2969C5.67187 23.6852 5.98669 24 6.375 24L17.625 24C18.0133 24 18.3281 23.6852 18.3281 23.2969C18.3281 21.3584 16.751 19.7813 14.8125 19.7813H14.5439L15.247 18.375H21.8906C23.0537 18.375 24 17.4287 24 16.2656L24 2.10938C24 0.946266 23.0537 0 21.8906 0ZM14.8125 21.1875C15.7292 21.1875 16.5112 21.7753 16.8014 22.5938L7.19859 22.5938C7.48875 21.7753 8.27077 21.1875 9.1875 21.1875C9.89662 21.1875 14.1042 21.1875 14.8125 21.1875ZM10.3252 18.375H13.6748L12.9717 19.7812H11.0283L10.3252 18.375ZM22.5937 16.2656C22.5937 16.6533 22.2783 16.9688 21.8906 16.9688C20.8123 16.9688 3.15802 16.9688 2.10937 16.9688C1.72167 16.9688 1.40625 16.6533 1.40625 16.2656V15.5625L22.5937 15.5625V16.2656ZM22.5938 14.1563L1.40625 14.1562L1.40625 2.10938C1.40625 1.72167 1.72167 1.40625 2.10938 1.40625L21.8906 1.40625C22.2783 1.40625 22.5938 1.72167 22.5938 2.10938V14.1563Z" fill="#EDEDED"/>
<path d="M7.78125 4.26562H4.92188C4.53356 4.26562 4.21875 4.58044 4.21875 4.96875V7.78125C4.21875 8.16956 4.53356 8.48438 4.92187 8.48438H7.78125C8.16956 8.48438 8.48438 8.16956 8.48438 7.78125V4.96875C8.48438 4.58044 8.16956 4.26563 7.78125 4.26562ZM7.07812 7.07812H5.625V5.67188H7.07812V7.07812Z" fill="#EDEDED"/>
<path d="M13.4062 4.26562H10.5938C10.2054 4.26562 9.89062 4.58044 9.89062 4.96875V7.78125C9.89062 8.16956 10.2054 8.48438 10.5938 8.48438H13.4062C13.7946 8.48438 14.1094 8.16956 14.1094 7.78125V4.96875C14.1094 4.58044 13.7946 4.26563 13.4062 4.26562ZM12.7031 7.07812H11.2969V5.67188H12.7031V7.07812Z" fill="#EDEDED"/>
<path d="M19.0312 4.26562H16.2188C15.8304 4.26562 15.5156 4.58044 15.5156 4.96875V7.78125C15.5156 8.16956 15.8304 8.48438 16.2188 8.48438H19.0312C19.4196 8.48438 19.7344 8.16956 19.7344 7.78125V4.96875C19.7344 4.58044 19.4196 4.26563 19.0312 4.26562ZM18.3281 7.07812H16.9219V5.67188H18.3281V7.07812Z" fill="#EDEDED"/>
<path d="M7.78125 9.89062H4.92188C4.53356 9.89062 4.21875 10.2054 4.21875 10.5938C4.21875 10.9821 4.53356 11.2969 4.92188 11.2969H7.78125C8.16956 11.2969 8.48438 10.9821 8.48438 10.5938C8.48438 10.2054 8.16956 9.89062 7.78125 9.89062Z" fill="#EDEDED"/>
<path d="M13.4062 9.89062H10.5938C10.2054 9.89062 9.89062 10.2054 9.89062 10.5938C9.89062 10.9821 10.2054 11.2969 10.5938 11.2969H13.4062C13.7946 11.2969 14.1094 10.9821 14.1094 10.5938C14.1094 10.2054 13.7946 9.89062 13.4062 9.89062Z" fill="#EDEDED"/>
<path d="M19.0312 9.89062H16.2188C15.8304 9.89062 15.5156 10.2054 15.5156 10.5938C15.5156 10.9821 15.8304 11.2969 16.2188 11.2969H19.0312C19.4196 11.2969 19.7344 10.9821 19.7344 10.5938C19.7344 10.2054 19.4196 9.89062 19.0312 9.89062Z" fill="#EDEDED"/>
</svg>
