<svg width="24" height="24" viewBox="0 0 24 24" fill="none" xmlns="http://www.w3.org/2000/svg">
<path d="M3.01712 3.01809C4.96337 1.07184 7.55101 0 10.3034 0C13.0557 0 15.6434 1.07184 17.5896 3.01809C19.5358 4.9643 20.6077 7.55194 20.6077 10.3043C20.6077 12.8206 19.7112 15.199 18.0702 17.0757L23.7929 22.7984C24.0677 23.0733 24.0677 23.5189 23.7929 23.7938C23.6554 23.9312 23.4753 24 23.2952 24C23.1151 24 22.9349 23.9313 22.7975 23.7938L17.0748 18.0712C15.1981 19.7121 12.8198 20.6086 10.3034 20.6086C7.55096 20.6086 4.96342 19.5368 3.01717 17.5905C1.07096 15.6443 -0.000881195 13.0567 -0.000881195 10.3043C-0.000881195 7.55194 1.07092 4.9643 3.01712 3.01809ZM4.01256 16.5951C7.48135 20.0639 13.1253 20.0639 16.5941 16.5951C20.0629 13.1264 20.0629 7.48228 16.5941 4.01353C14.8596 2.27897 12.5818 1.41197 10.3033 1.41197C8.02538 1.41197 5.7467 2.27939 4.01251 4.01353C0.543854 7.48223 0.543854 13.1263 4.01256 16.5951Z" fill="#203359"/>
</svg>
