<svg width="48" height="48" viewBox="0 0 48 48" fill="none" xmlns="http://www.w3.org/2000/svg">
<g style="mix-blend-mode:luminosity">
<path d="M43.7812 0H4.21875C1.89253 0 0 1.89253 0 4.21875V43.7812C0 46.1075 1.89253 48 4.21875 48H43.7812C46.1075 48 48 46.1075 48 43.7812V4.21875C48 1.89253 46.1075 0 43.7812 0ZM4.21875 2.8125H43.7812C44.5567 2.8125 45.1875 3.44334 45.1875 4.21875V11.25H2.8125V4.21875C2.8125 3.44334 3.44334 2.8125 4.21875 2.8125ZM43.7812 45.1875H4.21875C3.44334 45.1875 2.8125 44.5567 2.8125 43.7812V14.0625H45.1875V43.7812C45.1875 44.5567 44.5567 45.1875 43.7812 45.1875Z" fill="#203359"/>
<path d="M9.9375 8.4375C10.7142 8.4375 11.3438 7.8079 11.3438 7.03125C11.3438 6.2546 10.7142 5.625 9.9375 5.625C9.16085 5.625 8.53125 6.2546 8.53125 7.03125C8.53125 7.8079 9.16085 8.4375 9.9375 8.4375Z" fill="#203359"/>
<path d="M15.5625 8.4375C16.3392 8.4375 16.9688 7.8079 16.9688 7.03125C16.9688 6.2546 16.3392 5.625 15.5625 5.625C14.7858 5.625 14.1562 6.2546 14.1562 7.03125C14.1562 7.8079 14.7858 8.4375 15.5625 8.4375Z" fill="#203359"/>
<path d="M21.1875 8.4375C21.9642 8.4375 22.5938 7.8079 22.5938 7.03125C22.5938 6.2546 21.9642 5.625 21.1875 5.625C20.4108 5.625 19.7812 6.2546 19.7812 7.03125C19.7812 7.8079 20.4108 8.4375 21.1875 8.4375Z" fill="#203359"/>
<path d="M38.1562 16.875H9.9375C9.16087 16.875 8.53125 17.5046 8.53125 18.2812V26.8125C8.53125 27.5891 9.16087 28.2188 9.9375 28.2188H38.1562C38.9329 28.2188 39.5625 27.5891 39.5625 26.8125V18.2812C39.5625 17.5046 38.9329 16.875 38.1562 16.875ZM36.75 25.4062H11.3438V19.6875H36.75V25.4062Z" fill="#203359"/>
<path d="M24 31.0312H9.9375C9.16087 31.0312 8.53125 31.6609 8.53125 32.4375V40.9688C8.53125 41.7454 9.16087 42.375 9.9375 42.375H24C24.7766 42.375 25.4062 41.7454 25.4062 40.9688V32.4375C25.4062 31.6609 24.7766 31.0312 24 31.0312ZM22.5938 39.5625H11.3438V33.8438H22.5938V39.5625Z" fill="#203359"/>
<path d="M38.1562 31.0312H29.625C28.8484 31.0312 28.2188 31.6609 28.2188 32.4375V40.9688C28.2188 41.7454 28.8484 42.375 29.625 42.375H38.1562C38.9329 42.375 39.5625 41.7454 39.5625 40.9688V32.4375C39.5625 31.6609 38.9329 31.0312 38.1562 31.0312ZM36.75 39.5625H31.0312V33.8438H36.75V39.5625Z" fill="#203359"/>
</g>
</svg>
