<svg width="48" height="48" viewBox="0 0 48 48" fill="none" xmlns="http://www.w3.org/2000/svg">
<g clip-path="url(#clip0)">
<path d="M1.40625 10.6534H21.9053C22.682 10.6534 23.3115 10.0239 23.3115 9.24719V7.48279H34.2935V8.60156L33.832 8.26245C33.2065 7.80249 32.3262 7.93689 31.8662 8.56274C31.4062 9.1886 31.5406 10.0686 32.1665 10.5286L34.8669 12.5134C35.1145 12.6954 35.4071 12.7866 35.6997 12.7866C35.9919 12.7866 36.2845 12.6954 36.5325 12.5134L39.2329 10.5286C39.8584 10.0686 39.9932 9.1886 39.5332 8.56274C39.0732 7.93689 38.1929 7.80212 37.567 8.26245L37.106 8.60156V6.07654C37.106 5.30017 36.4761 4.67029 35.6997 4.67029H23.3115V2.90625C23.3115 2.12952 22.6816 1.5 21.9053 1.5H1.40625C0.629517 1.5 0 2.12952 0 2.90625V9.24719C0 10.0239 0.629517 10.6534 1.40625 10.6534ZM2.8125 4.3125H20.499V7.84094H2.8125V4.3125Z" fill="#203359"/>
<path d="M34.2933 22.5974V32.3416L33.8318 32.0024C33.206 31.5425 32.326 31.6769 31.866 32.3027C31.4061 32.9286 31.5405 33.8086 32.1663 34.2686L34.8664 36.2534C35.1143 36.4354 35.4069 36.5266 35.6995 36.5266C35.9918 36.5266 36.2844 36.4354 36.5323 36.2534L39.2324 34.2686C39.8582 33.8086 39.9926 32.9286 39.5326 32.3027C39.0727 31.6769 38.1927 31.5425 37.5668 32.0024L37.1054 32.3416V22.5974H45.9487C46.7254 22.5974 47.3549 21.9679 47.3549 21.1912V14.8506C47.3549 14.0739 46.7254 13.4443 45.9487 13.4443H25.45C24.6733 13.4443 24.0438 14.0739 24.0438 14.8506V16.6146H11.6556C10.8788 16.6146 10.2493 17.2441 10.2493 18.0209V20.6997L9.7879 20.3606C9.16204 19.9006 8.28204 20.035 7.82208 20.6609C7.36211 21.2867 7.49651 22.1667 8.12237 22.6267L10.8228 24.6116C11.0704 24.7936 11.363 24.8848 11.6556 24.8848C11.9478 24.8848 12.2404 24.7939 12.4883 24.6116L15.1888 22.6267C15.8143 22.1667 15.9487 21.2867 15.4891 20.6609C15.0291 20.035 14.1487 19.9006 13.5229 20.3606L13.0615 20.6997V19.4271H24.0434V21.1912C24.0434 21.9679 24.6733 22.5974 25.4496 22.5974H34.2933ZM26.8563 16.2565H44.5428V19.7849H26.8563V16.2565Z" fill="#203359"/>
<path d="M21.9053 25.3883H1.40625C0.629517 25.3883 0 26.0178 0 26.7946V33.1355C0 33.9122 0.629517 34.5417 1.40625 34.5417H21.9053C22.682 34.5417 23.3115 33.9122 23.3115 33.1355V26.7946C23.3115 26.0178 22.682 25.3883 21.9053 25.3883ZM20.499 31.7292H2.8125V28.2008H20.499V31.7292Z" fill="#203359"/>
<path d="M46.5938 37.3326H26.0947C25.318 37.3326 24.6885 37.9622 24.6885 38.7389V45.0798C24.6885 45.8566 25.318 46.4861 26.0947 46.4861H46.5938C47.3705 46.4861 48 45.8566 48 45.0798V38.7389C48 37.9622 47.3705 37.3326 46.5938 37.3326ZM45.1875 43.6736H27.501V40.1451H45.1875V43.6736Z" fill="#203359"/>
</g>
<defs>
<clipPath id="clip0">
<rect width="48" height="48" fill="white"/>
</clipPath>
</defs>
</svg>
